<?xml version="1.0" encoding="utf-8"?>
<!-- Generator: Adobe Illustrator 16.0.0, SVG Export Plug-In . SVG Version: 6.00 Build 0)  -->
<!DOCTYPE svg PUBLIC "-//W3C//DTD SVG 1.1//EN" "http://www.w3.org/Graphics/SVG/1.1/DTD/svg11.dtd">
<svg version="1.1" id="Layer_1" xmlns="http://www.w3.org/2000/svg" xmlns:xlink="http://www.w3.org/1999/xlink" x="0px" y="0px"
	 width="229px" height="63.75px" viewBox="0 0 229 63.75" enable-background="new 0 0 229 63.75" xml:space="preserve">
<g>
	<path fill="#FFFFFF" d="M6.336,46.646V7.744h12.931c12.328,0,18.464,8.657,18.464,19.397c0,11.779-7.178,19.504-18.464,19.504
		H6.336z M19.267,10.265H9.131v33.861h10.136c10.246,0,15.67-7.342,15.67-16.985C34.937,17.333,29.293,10.265,19.267,10.265z"/>
	<path fill="#FFFFFF" d="M44.935,11.689v-5.04h2.739v5.04H44.935z M44.935,46.646V18.154h2.739v28.491H44.935z"/>
	<path fill="#FFFFFF" d="M53.864,32.455c0-7.781,5.424-14.795,13.204-14.795c4.985,0,8.603,2.959,11.234,6.686v-6.192h2.465v29.039
		c0,7.726-6.247,11.67-13.425,11.67c-6.628,0-10.246-2.572-12.656-6.573l1.863-1.261c2.247,3.835,6.411,5.587,10.793,5.587
		c5.807,0,10.685-3.176,10.685-9.423v-6.246c-2.302,3.673-6.52,6.137-10.685,6.137C59.452,47.084,53.864,39.905,53.864,32.455z
		 M78.027,37.058v-9.369c-1.699-4.384-6.137-7.561-10.521-7.561c-6.849,0-10.903,6.41-10.903,12.382
		c0,6.521,5.041,12.217,11.397,12.217C72.767,44.727,77.534,40.729,78.027,37.058z"/>
	<path fill="#FFFFFF" d="M88.671,11.689v-5.04h2.74v5.04H88.671z M88.671,46.646V18.154h2.74v28.491H88.671z"/>
	<path fill="#106BE0" d="M99.961,46.646V7.744h14.958c12.931,0,19.616,8.657,19.616,19.397c0,11.779-7.781,19.504-19.616,19.504
		H99.961z M114.92,17.058h-4.274v20.273h4.274c5.59,0,8.767-4.327,8.767-10.19C123.687,21.112,120.398,17.058,114.92,17.058z"/>
	<path fill="#106BE0" d="M136.577,37.935c0-5.808,5.151-9.863,12.438-9.863c2.245,0,4.328,0.384,5.808,1.096v-0.876
		c0-2.686-1.479-4-4.985-4c-3.233,0-5.863,1.096-8.932,3.123l-3.014-6.465c3.836-2.466,8.055-3.671,12.986-3.671
		c9.15,0,14.355,4.164,14.355,12.273v5.588c0,1.973,0.602,2.631,2.521,2.739v8.768c-1.919,0.385-3.616,0.548-4.932,0.548
		c-3.726,0-5.59-1.37-6.138-4.001l-0.219-1.04c-2.576,3.287-6.028,5.041-9.808,5.041C140.906,47.193,136.577,43.249,136.577,37.935z
		 M153.454,38.646c0.821-0.549,1.369-1.315,1.369-2.027V34.48c-1.205-0.438-2.85-0.764-4.001-0.764c-2.52,0-4.437,1.422-4.437,3.284
		c0,1.589,1.424,2.741,3.397,2.741C151.044,39.742,152.467,39.304,153.454,38.646z"/>
	<path fill="#106BE0" d="M190.635,45.057c-2.905,1.26-6.411,2.19-9.589,2.19c-4.713,0-8.657-2.136-8.657-8.382V25.661h-3.563v-7.835
		h3.563V8.785h10.409v9.042h5.645v7.835h-5.645v9.531c0,1.919,0.877,2.577,2.247,2.577c1.042,0,2.409-0.385,3.725-0.932
		L190.635,45.057z"/>
	<path fill="#106BE0" d="M191.732,37.935c0-5.808,5.149-9.863,12.436-9.863c2.248,0,4.33,0.384,5.809,1.096v-0.876
		c0-2.686-1.479-4-4.986-4c-3.232,0-5.861,1.096-8.931,3.123l-3.014-6.465c3.836-2.466,8.054-3.671,12.986-3.671
		c9.15,0,14.355,4.164,14.355,12.273v5.588c0,1.973,0.602,2.631,2.519,2.739v8.768c-1.917,0.385-3.614,0.548-4.928,0.548
		c-3.728,0-5.592-1.37-6.14-4.001l-0.219-1.04c-2.575,3.287-6.028,5.041-9.808,5.041C196.06,47.193,191.732,43.249,191.732,37.935z
		 M208.609,38.646c0.82-0.549,1.367-1.315,1.367-2.027V34.48c-1.205-0.438-2.851-0.764-3.999-0.764c-2.52,0-4.437,1.422-4.437,3.284
		c0,1.589,1.422,2.741,3.395,2.741C206.197,39.742,207.621,39.304,208.609,38.646z"/>
</g>
</svg>
